<?xml version="1.0" encoding="UTF-8"?>
<svg width="700pt" height="700pt" version="1.1" viewBox="0 0 700 700" xmlns="http://www.w3.org/2000/svg" xmlns:xlink="http://www.w3.org/1999/xlink">
 <defs>
  <symbol id="i" overflow="visible">
   <path d="m29.312-1.75c-1.5117 0.78125-3.0898 1.3711-4.7344 1.7656-1.6367 0.40625-3.3398 0.60938-5.1094 0.60938-5.3125 0-9.5273-1.4844-12.641-4.4531-3.1055-2.9688-4.6562-7-4.6562-12.094s1.5508-9.125 4.6562-12.094c3.1133-2.9688 7.3281-4.4531 12.641-4.4531 1.7695 0 3.4727 0.19922 5.1094 0.59375 1.6445 0.39844 3.2227 0.99219 4.7344 1.7812v6.5938c-1.5312-1.0391-3.0391-1.8008-4.5156-2.2812-1.4805-0.48828-3.0391-0.73438-4.6719-0.73438-2.9375 0-5.2461 0.94531-6.9219 2.8281-1.6797 1.875-2.5156 4.4648-2.5156 7.7656 0 3.293 0.83594 5.8828 2.5156 7.7656 1.6758 1.875 3.9844 2.8125 6.9219 2.8125 1.6328 0 3.1914-0.23828 4.6719-0.71875 1.4766-0.48828 2.9844-1.2539 4.5156-2.2969z"/>
  </symbol>
  <symbol id="d" overflow="visible">
   <path d="m21.453-17.406c-0.67969-0.3125-1.3516-0.53906-2.0156-0.6875-0.65625-0.15625-1.3203-0.23438-1.9844-0.23438-1.9688 0-3.4844 0.63281-4.5469 1.8906-1.0547 1.2617-1.5781 3.0703-1.5781 5.4219v11.016h-7.6562v-23.922h7.6562v3.9219c0.97656-1.5625 2.1016-2.7031 3.375-3.4219 1.2812-0.71875 2.8125-1.0781 4.5938-1.0781 0.25 0 0.52344 0.011719 0.82812 0.03125 0.30078 0.023438 0.73438 0.070312 1.2969 0.14062z"/>
  </symbol>
  <symbol id="c" overflow="visible">
   <path d="m27.562-12.031v2.1875h-17.891c0.1875 1.793 0.83203 3.1367 1.9375 4.0312 1.1133 0.89844 2.6719 1.3438 4.6719 1.3438 1.6016 0 3.25-0.23438 4.9375-0.70312 1.6875-0.47656 3.4219-1.2031 5.2031-2.1719v5.8906c-1.8047 0.6875-3.6094 1.2031-5.4219 1.5469-1.8125 0.35156-3.6211 0.53125-5.4219 0.53125-4.3359 0-7.7031-1.0977-10.109-3.2969-2.3984-2.207-3.5938-5.2969-3.5938-9.2656 0-3.9062 1.1758-6.9727 3.5312-9.2031 2.3633-2.2383 5.6094-3.3594 9.7344-3.3594 3.7578 0 6.7695 1.1367 9.0312 3.4062 2.2578 2.2617 3.3906 5.2812 3.3906 9.0625zm-7.8594-2.5312c0-1.457-0.42969-2.6289-1.2812-3.5156-0.84375-0.89453-1.9492-1.3438-3.3125-1.3438-1.4922 0-2.6992 0.41797-3.625 1.25-0.91797 0.83594-1.4922 2.0391-1.7188 3.6094z"/>
  </symbol>
  <symbol id="a" overflow="visible">
   <path d="m14.391-10.766c-1.5938 0-2.793 0.27344-3.5938 0.8125-0.80469 0.54297-1.2031 1.3398-1.2031 2.3906 0 0.96875 0.32031 1.7305 0.96875 2.2812 0.64453 0.54297 1.5469 0.8125 2.7031 0.8125 1.4375 0 2.6445-0.51562 3.625-1.5469 0.98828-1.0312 1.4844-2.3203 1.4844-3.875v-0.875zm11.688-2.8906v13.656h-7.7031v-3.5469c-1.0312 1.4492-2.1875 2.5078-3.4688 3.1719s-2.8398 1-4.6719 1c-2.4805 0-4.4961-0.72266-6.0469-2.1719-1.543-1.4453-2.3125-3.3203-2.3125-5.625 0-2.8125 0.96094-4.8672 2.8906-6.1719 1.9375-1.3125 4.9688-1.9688 9.0938-1.9688h4.5156v-0.60938c0-1.207-0.48047-2.0938-1.4375-2.6562-0.94922-0.5625-2.4375-0.84375-4.4688-0.84375-1.6367 0-3.1562 0.16797-4.5625 0.5-1.4062 0.32422-2.7188 0.8125-3.9375 1.4688v-5.8281c1.6445-0.40625 3.2891-0.70703 4.9375-0.90625 1.6562-0.20703 3.3047-0.3125 4.9531-0.3125 4.3203 0 7.4375 0.85547 9.3438 2.5625 1.9141 1.6992 2.875 4.4609 2.875 8.2812z"/>
  </symbol>
  <symbol id="h" overflow="visible">
   <path d="m12.031-30.719v6.7969h7.875v5.4688h-7.875v10.141c0 1.1172 0.21875 1.8711 0.65625 2.2656 0.4375 0.38672 1.3125 0.57812 2.625 0.57812h3.9375v5.4688h-6.5625c-3.0234 0-5.1641-0.62891-6.4219-1.8906-1.2617-1.2578-1.8906-3.3984-1.8906-6.4219v-10.141h-3.7969v-5.4688h3.7969v-6.7969z"/>
  </symbol>
  <symbol id="b" overflow="visible">
   <path d="m19.953-20.422v-12.812h7.6875v33.234h-7.6875v-3.4531c-1.0547 1.4062-2.2148 2.4375-3.4844 3.0938-1.2734 0.65625-2.7422 0.98438-4.4062 0.98438-2.9492 0-5.3711-1.1719-7.2656-3.5156-1.8867-2.3438-2.8281-5.3594-2.8281-9.0469s0.94141-6.7031 2.8281-9.0469c1.8945-2.3438 4.3164-3.5156 7.2656-3.5156 1.6562 0 3.1172 0.33594 4.3906 1 1.2812 0.65625 2.4453 1.6836 3.5 3.0781zm-5.0469 15.484c1.6445 0 2.8945-0.59766 3.75-1.7969 0.86328-1.1953 1.2969-2.9297 1.2969-5.2031 0-2.2812-0.43359-4.0195-1.2969-5.2188-0.85547-1.1953-2.1055-1.7969-3.75-1.7969-1.625 0-2.8711 0.60156-3.7344 1.7969-0.85547 1.1992-1.2812 2.9375-1.2812 5.2188 0 2.2734 0.42578 4.0078 1.2812 5.2031 0.86328 1.1992 2.1094 1.7969 3.7344 1.7969z"/>
  </symbol>
  <symbol id="g" overflow="visible">
   <path d="m16.406-4.9375c1.6328 0 2.8828-0.59766 3.75-1.7969 0.86328-1.1953 1.2969-2.9297 1.2969-5.2031 0-2.2812-0.43359-4.0195-1.2969-5.2188-0.86719-1.1953-2.1172-1.7969-3.75-1.7969-1.6367 0-2.8906 0.60547-3.7656 1.8125-0.875 1.1992-1.3125 2.9336-1.3125 5.2031 0 2.2617 0.4375 3.9961 1.3125 5.2031 0.875 1.1992 2.1289 1.7969 3.7656 1.7969zm-5.0781-15.484c1.0508-1.3945 2.2188-2.4219 3.5-3.0781 1.2812-0.66406 2.7539-1 4.4219-1 2.9453 0 5.3672 1.1719 7.2656 3.5156 1.8945 2.3438 2.8438 5.3594 2.8438 9.0469s-0.94922 6.7031-2.8438 9.0469c-1.8984 2.3438-4.3203 3.5156-7.2656 3.5156-1.668 0-3.1406-0.33594-4.4219-1s-2.4492-1.6914-3.5-3.0781v3.4531h-7.6562v-33.234h7.6562z"/>
  </symbol>
  <symbol id="f" overflow="visible">
   <path d="m0.53125-23.922h7.6562l6.4219 16.234 5.4688-16.234h7.6562l-10.062 26.188c-1.0117 2.6641-2.1953 4.5234-3.5469 5.5781-1.3438 1.0625-3.1211 1.5938-5.3281 1.5938h-4.4219v-5.0156h2.3906c1.3008 0 2.2422-0.21094 2.8281-0.625 0.59375-0.40625 1.0547-1.1484 1.3906-2.2188l0.20312-0.65625z"/>
  </symbol>
  <symbol id="e" overflow="visible">
   <path d="m12.234-25.672v19.453h2.9531c3.3633 0 5.9297-0.83203 7.7031-2.5 1.7695-1.6641 2.6562-4.0859 2.6562-7.2656 0-3.1562-0.88672-5.5547-2.6562-7.2031-1.7617-1.6562-4.3281-2.4844-7.7031-2.4844zm-8.2188-6.2188h8.6719c4.8438 0 8.4453 0.34375 10.812 1.0312 2.375 0.6875 4.4102 1.8594 6.1094 3.5156 1.4883 1.4375 2.5977 3.1016 3.3281 4.9844 0.72656 1.875 1.0938 4 1.0938 6.375 0 2.4062-0.36719 4.5586-1.0938 6.4531-0.73047 1.8867-1.8398 3.5469-3.3281 4.9844-1.7109 1.6484-3.7617 2.8203-6.1562 3.5156-2.3984 0.6875-5.9844 1.0312-10.766 1.0312h-8.6719z"/>
  </symbol>
 </defs>
 <g>
  <path d="m587.04 43.262c-41.703-17.812-86.703-26.594-132.04-25.762-42.469-0.57031-84.648 7.0273-124.25 22.375-3.4922 1.4492-5.6523 4.9805-5.3633 8.75l21.234 278.62c2.1875 23.527-5.4062 46.918-21 64.672-12.914 14.645-29.457 25.629-47.965 31.848-11.922 3.0938-24.266 4.2305-36.551 3.3711-8.4648-0.29688-16.938-0.0625-25.375 0.69922-19.598 1.5586-37.988 10.098-51.824 24.07-13.836 13.969-22.199 32.441-23.566 52.055-4.1758-0.078125-7.8242 2.8086-8.7109 6.8906-0.88672 4.0781 1.2344 8.2188 5.0625 9.8828l8.75 3.5781c40.441 16.172 83.406 18.508 125.8 18.508 8.6445 0 17.266-0.097657 25.828-0.20312 8.2969-0.085938 16.574-0.18359 24.789-0.18359h0.003906c36.938 0.046875 72.207-15.363 97.266-42.496l23.422-25.551c7.3984-8.0156 15.91-14.922 25.281-20.5l13.555 81.297v-0.003906c0.69922 4.2188 4.3438 7.3086 8.6172 7.3164h52.5c4.2773-0.003906 7.9258-3.0977 8.6289-7.3164l17.359-104.12c7.0352-21.039 7.6445-43.695 1.75-65.082-6.9258-27.137-8.6445-55.344-5.0586-83.125l11.531-99.172 15.332-131.48c0.43359-3.75-1.582-7.3516-5.0039-8.9414zm-16.879 45.621c-25.859-9.2109-52.805-15.012-80.16-17.254v-35c28.82 2.332 57.113 9.0469 83.914 19.906zm-99.664 343.8c-0.32422 0.13672-0.64062 0.29297-0.94531 0.47266-1.9531 0.9375-3.9023 1.8828-5.8008 2.9141v-51.355c35-8.2852 70.234-20.125 86.879-25.945 0.82422 3.9531 1.75 7.875 2.7578 11.734 4.3242 16.207 4.4023 33.254 0.22656 49.5h-27.223c-19.336 0.054688-38.426 4.3828-55.895 12.68zm77.352-151.88c-2.418 20.051-2.4414 40.316-0.070312 60.375-14.148 4.9961-49.133 16.93-84 25.488v-219.15c7.4844-1.9375 14.117-6.3047 18.863-12.41 4.7422-6.1094 7.332-13.613 7.3594-21.348v-24.562c26.711 2.2852 52.98 8.2383 78.066 17.695l-8.6875 74.742zm-183.85 44.547-16.73-220.34c23.496-8.2227 47.93-13.484 72.73-15.652v24.402c0.027344 7.7383 2.6211 15.246 7.3711 21.355 4.75 6.1055 11.387 10.469 18.879 12.402v223.17c-14.367 3.2695-29.02 5.1367-43.75 5.5742-27.074 0-37.625-47.066-38.5-50.906zm108.5-289.92v78.328c0 6.2539-3.3359 12.031-8.75 15.156s-12.086 3.125-17.5 0-8.75-8.9023-8.75-15.156v-78.305c5.8008-0.26953 11.629-0.44531 17.5-0.44531s11.715 0.15625 17.5 0.42188zm-52.5 1.3281v35c-25.215 2.1602-50.09 7.2852-74.105 15.27l-2.5391-33.336 0.003906-0.003906c24.684-9.0117 50.457-14.707 76.641-16.93zm9.625 425.84-23.422 25.551c-21.723 23.52-52.285 36.883-84.301 36.855-8.2773 0-16.625 0.097656-24.973 0.18359-46.945 0.52344-95.375 1.0781-139.42-14.953 0.003907-16.406 6.1875-32.207 17.324-44.254 11.133-12.051 26.398-19.457 42.754-20.75 7.7266-0.67969 15.488-0.87891 23.242-0.59375 14.133 0.89453 28.316-0.51562 42-4.168 21.457-7.1445 40.656-19.82 55.656-36.75 10.137-11.254 17.527-24.711 21.586-39.305 8.6094 15.184 22.023 29.34 42.43 29.34 14.715-0.37891 29.363-2.1367 43.75-5.25v57.75c0.050781 0.37109 0.125 0.73828 0.21875 1.1016-6.043 4.5742-11.68 9.6602-16.844 15.207zm105.46 62.406h-37.68l-13.203-79.223c13.406-5.418 27.723-8.2305 42.184-8.2773h23.285z"/>
  <path d="m455 113.75c2.3203 0 4.5469-0.92188 6.1875-2.5625s2.5625-3.8672 2.5625-6.1875v-8.75c0-4.832-3.918-8.75-8.75-8.75s-8.75 3.918-8.75 8.75v8.75c0 2.3203 0.92188 4.5469 2.5625 6.1875s3.8672 2.5625 6.1875 2.5625z"/>
  <path d="m376.25 280c-0.21094 14.043 3.3828 27.883 10.395 40.051 7.0117 12.172 17.188 22.215 29.445 29.074 4.3203 2.1758 9.5859 0.43359 11.758-3.8867 2.1758-4.3203 0.4375-9.582-3.8828-11.758-9.3633-5.3945-17.102-13.203-22.418-22.609-5.3125-9.4102-8.0078-20.07-7.7969-30.871 0.78125-17.801 6.9375-34.945 17.656-49.176 10.258-13.66 16.289-30.023 17.344-47.074 0-40.461-47.25-59.824-49.246-60.629-4.4883-1.7969-9.5859 0.38281-11.383 4.875-1.7969 4.4883 0.38281 9.5859 4.875 11.383 0.38281 0.14844 38.254 15.629 38.254 44.371-1.1562 13.781-6.2734 26.938-14.734 37.879-12.461 16.98-19.523 37.32-20.266 58.371z"/>
  <path d="m530.5 123.12c-1.9961 0.80469-49.246 20.168-49.246 60.629 1.0547 17.051 7.0859 33.414 17.344 47.074 10.719 14.23 16.875 31.375 17.656 49.176 0.19531 10.781-2.4961 21.414-7.8008 30.801-5.3047 9.3867-13.027 17.18-22.359 22.574-4.3281 2.1602-6.082 7.418-3.9219 11.742 2.1602 4.3242 7.418 6.082 11.742 3.9219 12.246-6.8516 22.41-16.887 29.422-29.035 7.0117-12.152 10.613-25.977 10.418-40.004-0.74219-21.051-7.8047-41.391-20.266-58.371-8.4609-10.941-13.578-24.098-14.734-37.879 0-28.578 37.887-44.23 38.266-44.379 4.4844-1.8008 6.6641-6.8984 4.8633-11.387-1.8008-4.4844-6.8984-6.6641-11.383-4.8633z"/>
  <use x="70" y="691.25" xlink:href="#i"/>
  <use x="102.109375" y="691.25" xlink:href="#d"/>
  <use x="123.683594" y="691.25" xlink:href="#c"/>
  <use x="153.355469" y="691.25" xlink:href="#a"/>
  <use x="182.878906" y="691.25" xlink:href="#h"/>
  <use x="203.792969" y="691.25" xlink:href="#c"/>
  <use x="233.464844" y="691.25" xlink:href="#b"/>
  <use x="280.011719" y="691.25" xlink:href="#g"/>
  <use x="311.328125" y="691.25" xlink:href="#f"/>
  <use x="355.078125" y="691.25" xlink:href="#b"/>
  <use x="386.398438" y="691.25" xlink:href="#e"/>
  <use x="422.714844" y="691.25" xlink:href="#a"/>
  <use x="452.234375" y="691.25" xlink:href="#d"/>
  <use x="473.8125" y="691.25" xlink:href="#a"/>
 </g>
</svg>
