<?xml version="1.0" encoding="UTF-8"?>
<svg width="700pt" height="700pt" version="1.1" viewBox="0 0 700 700" xmlns="http://www.w3.org/2000/svg" xmlns:xlink="http://www.w3.org/1999/xlink">
 <defs>
  <symbol id="o" overflow="visible">
   <path d="m32.344-1.9375c-1.668 0.86719-3.4062 1.5156-5.2188 1.9531-1.8047 0.44531-3.6836 0.67188-5.6406 0.67188-5.8672 0-10.512-1.6328-13.938-4.9062-3.4297-3.2812-5.1406-7.7266-5.1406-13.344 0-5.625 1.7109-10.07 5.1406-13.344 3.4258-3.2812 8.0703-4.9219 13.938-4.9219 1.957 0 3.8359 0.21875 5.6406 0.65625 1.8125 0.4375 3.5508 1.0898 5.2188 1.9531v7.2812c-1.6797-1.1445-3.3359-1.9844-4.9688-2.5156-1.6367-0.53125-3.3594-0.79688-5.1719-0.79688-3.2422 0-5.7891 1.0391-7.6406 3.1094-1.8555 2.0742-2.7812 4.9336-2.7812 8.5781 0 3.625 0.92578 6.4805 2.7812 8.5625 1.8516 2.0742 4.3984 3.1094 7.6406 3.1094 1.8125 0 3.5352-0.26562 5.1719-0.79688 1.6328-0.53906 3.2891-1.3828 4.9688-2.5312z"/>
  </symbol>
  <symbol id="b" overflow="visible">
   <path d="m23.672-19.219c-0.74219-0.34375-1.4766-0.59766-2.2031-0.76562-0.73047-0.16406-1.4648-0.25-2.2031-0.25-2.1797 0-3.8516 0.69922-5.0156 2.0938-1.168 1.3984-1.75 3.3867-1.75 5.9688v12.172h-8.4375v-26.406h8.4375v4.3438c1.082-1.7266 2.3281-2.9883 3.7344-3.7812 1.4062-0.80078 3.0859-1.2031 5.0469-1.2031 0.28906 0 0.59766 0.015625 0.92188 0.046875 0.33203 0.023438 0.8125 0.070312 1.4375 0.14062z"/>
  </symbol>
  <symbol id="a" overflow="visible">
   <path d="m30.406-13.266v2.3906h-19.734c0.20703 1.9922 0.92188 3.4805 2.1406 4.4688 1.2266 0.99219 2.9453 1.4844 5.1562 1.4844 1.7695 0 3.5859-0.25781 5.4531-0.78125 1.8633-0.53125 3.7734-1.332 5.7344-2.4062v6.5c-1.9922 0.76172-3.9844 1.3359-5.9844 1.7188-1.9922 0.38281-3.9844 0.57812-5.9844 0.57812-4.7812 0-8.4961-1.2109-11.141-3.6406-2.6484-2.4258-3.9688-5.832-3.9688-10.219 0-4.3125 1.2969-7.7031 3.8906-10.172 2.6016-2.4688 6.1875-3.7031 10.75-3.7031 4.1445 0 7.4609 1.25 9.9531 3.75 2.4883 2.5 3.7344 5.8438 3.7344 10.031zm-8.6719-2.8125c0-1.6016-0.46875-2.8945-1.4062-3.875-0.92969-0.97656-2.1484-1.4688-3.6562-1.4688-1.6367 0-2.9648 0.46094-3.9844 1.375-1.0234 0.91797-1.6562 2.2422-1.9062 3.9688z"/>
  </symbol>
  <symbol id="d" overflow="visible">
   <path d="m15.891-11.875c-1.7617 0-3.0898 0.29688-3.9844 0.89062-0.88672 0.59375-1.3281 1.4766-1.3281 2.6406 0 1.0625 0.35938 1.9023 1.0781 2.5156 0.71875 0.60547 1.7109 0.90625 2.9844 0.90625 1.582 0 2.9141-0.56641 4-1.7031 1.0938-1.1445 1.6406-2.5781 1.6406-4.2969v-0.95312zm12.891-3.1875v15.062h-8.5v-3.9062c-1.1367 1.5938-2.4141 2.7617-3.8281 3.5-1.418 0.72656-3.1367 1.0938-5.1562 1.0938-2.7422 0-4.9648-0.79688-6.6719-2.3906-1.6992-1.6016-2.5469-3.6758-2.5469-6.2188 0-3.0938 1.0625-5.3633 3.1875-6.8125 2.1328-1.4453 5.4766-2.1719 10.031-2.1719h4.9844v-0.65625c0-1.332-0.53125-2.3047-1.5938-2.9219-1.0547-0.625-2.6953-0.9375-4.9219-0.9375-1.8047 0-3.4844 0.18359-5.0469 0.54688-1.5547 0.35547-2.9961 0.89062-4.3281 1.6094v-6.4375c1.8008-0.4375 3.6133-0.76953 5.4375-1 1.8203-0.22656 3.6445-0.34375 5.4688-0.34375 4.7578 0 8.1953 0.94531 10.312 2.8281 2.1133 1.875 3.1719 4.9297 3.1719 9.1562z"/>
  </symbol>
  <symbol id="h" overflow="visible">
   <path d="m13.266-33.906v7.5h8.7031v6.0312h-8.7031v11.203c0 1.2305 0.24219 2.0625 0.73438 2.5 0.48828 0.42969 1.457 0.64062 2.9062 0.64062h4.3281v6.0312h-7.2344c-3.3359 0-5.6992-0.69141-7.0938-2.0781-1.3867-1.3945-2.0781-3.7578-2.0781-7.0938v-11.203h-4.1875v-6.0312h4.1875v-7.5z"/>
  </symbol>
  <symbol id="c" overflow="visible">
   <path d="m22.016-22.531v-14.156h8.4844v36.688h-8.4844v-3.8125c-1.1562 1.5547-2.4375 2.6953-3.8438 3.4219-1.3984 0.71875-3.0156 1.0781-4.8594 1.0781-3.25 0-5.9219-1.2891-8.0156-3.875-2.0859-2.5938-3.125-5.9219-3.125-9.9844 0-4.0703 1.0391-7.3984 3.125-9.9844 2.0938-2.5938 4.7656-3.8906 8.0156-3.8906 1.8203 0 3.4375 0.37109 4.8438 1.1094 1.4141 0.73047 2.7031 1.8672 3.8594 3.4062zm-5.5625 17.078c1.8125 0 3.1914-0.65625 4.1406-1.9688 0.94531-1.3203 1.4219-3.2383 1.4219-5.75 0-2.5195-0.47656-4.4375-1.4219-5.75-0.94922-1.3203-2.3281-1.9844-4.1406-1.9844-1.793 0-3.1641 0.66406-4.1094 1.9844-0.94922 1.3125-1.4219 3.2305-1.4219 5.75 0 2.5117 0.47266 4.4297 1.4219 5.75 0.94531 1.3125 2.3164 1.9688 4.1094 1.9688z"/>
  </symbol>
  <symbol id="g" overflow="visible">
   <path d="m18.109-5.4531c1.8008 0 3.1758-0.65625 4.125-1.9688 0.95703-1.3203 1.4375-3.2383 1.4375-5.75 0-2.5195-0.48047-4.4375-1.4375-5.75-0.94922-1.3203-2.3242-1.9844-4.125-1.9844-1.8125 0-3.2031 0.66797-4.1719 2-0.96094 1.3242-1.4375 3.2344-1.4375 5.7344 0 2.4922 0.47656 4.4023 1.4375 5.7344 0.96875 1.3242 2.3594 1.9844 4.1719 1.9844zm-5.6094-17.078c1.1562-1.5391 2.4414-2.6758 3.8594-3.4062 1.4141-0.73828 3.0391-1.1094 4.875-1.1094 3.2578 0 5.9297 1.2969 8.0156 3.8906 2.0938 2.5859 3.1406 5.9141 3.1406 9.9844 0 4.0625-1.0469 7.3906-3.1406 9.9844-2.0859 2.5859-4.7578 3.875-8.0156 3.875-1.8359 0-3.4609-0.36719-4.875-1.0938-1.418-0.73828-2.7031-1.875-3.8594-3.4062v3.8125h-8.4375v-36.688h8.4375z"/>
  </symbol>
  <symbol id="f" overflow="visible">
   <path d="m0.59375-26.406h8.4375l7.0938 17.922 6.0312-17.922h8.4375l-11.094 28.906c-1.1172 2.9375-2.418 4.9883-3.9062 6.1562-1.4922 1.1758-3.4492 1.7656-5.875 1.7656h-4.8906v-5.5469h2.6406c1.4375 0 2.4766-0.23047 3.125-0.6875 0.65625-0.44922 1.1641-1.2617 1.5312-2.4375l0.23438-0.73438z"/>
  </symbol>
  <symbol id="e" overflow="visible">
   <path d="m25.797-6.4062h-14.203l-2.2344 6.4062h-9.125l13.031-35.203h10.828l13.031 35.203h-9.125zm-11.938-6.5312h9.6406l-4.8125-14.016z"/>
  </symbol>
  <symbol id="n" overflow="visible">
   <path d="m30.594-16.078v16.078h-8.4844v-12.312c0-2.2695-0.054687-3.8359-0.15625-4.7031-0.09375-0.86328-0.27344-1.5039-0.53125-1.9219-0.32422-0.53906-0.77344-0.96094-1.3438-1.2656-0.5625-0.3125-1.2031-0.46875-1.9219-0.46875-1.7617 0-3.1484 0.68359-4.1562 2.0469-1 1.3555-1.5 3.2344-1.5 5.6406v12.984h-8.4375v-26.406h8.4375v3.875c1.2695-1.5391 2.6172-2.6758 4.0469-3.4062 1.4258-0.73828 3.0039-1.1094 4.7344-1.1094 3.0508 0 5.3633 0.9375 6.9375 2.8125 1.582 1.875 2.375 4.5938 2.375 8.1562z"/>
  </symbol>
  <symbol id="m" overflow="visible">
   <path d="m4.0625-26.406h8.4375v25.938c0 3.5312-0.85156 6.2266-2.5469 8.0938-1.6992 1.8633-4.1641 2.7969-7.3906 2.7969h-4.1719v-5.5469h1.4688c1.6016 0 2.7031-0.35938 3.2969-1.0781 0.60156-0.71875 0.90625-2.1406 0.90625-4.2656zm0-10.281h8.4375v6.8906h-8.4375z"/>
  </symbol>
  <symbol id="l" overflow="visible">
   <path d="m24.688-25.578v6.4062c-1.8125-0.75-3.5625-1.3125-5.25-1.6875-1.6797-0.375-3.2617-0.5625-4.75-0.5625-1.6055 0-2.7969 0.19922-3.5781 0.59375-0.77344 0.39844-1.1562 1.0117-1.1562 1.8438 0 0.67969 0.28906 1.1992 0.875 1.5625 0.59375 0.36719 1.6484 0.63281 3.1719 0.79688l1.4844 0.21875c4.3203 0.55469 7.2266 1.4609 8.7188 2.7188 1.5 1.25 2.25 3.2188 2.25 5.9062 0 2.8125-1.0391 4.9297-3.1094 6.3438-2.0742 1.418-5.1719 2.125-9.2969 2.125-1.7422 0-3.543-0.14062-5.4062-0.42188-1.8672-0.26953-3.7773-0.67969-5.7344-1.2344v-6.4062c1.6758 0.8125 3.3945 1.4297 5.1562 1.8438 1.7695 0.40625 3.5703 0.60938 5.4062 0.60938 1.6445 0 2.8828-0.22656 3.7188-0.6875 0.83203-0.45703 1.25-1.1328 1.25-2.0312 0-0.75-0.28906-1.3047-0.85938-1.6719-0.57422-0.375-1.7188-0.66406-3.4375-0.875l-1.4844-0.1875c-3.75-0.46875-6.3828-1.3359-7.8906-2.6094-1.5117-1.2812-2.2656-3.2188-2.2656-5.8125 0-2.7891 0.95703-4.8633 2.875-6.2188 1.9141-1.3516 4.8516-2.0312 8.8125-2.0312 1.5625 0 3.1953 0.12109 4.9062 0.35938 1.7188 0.24219 3.582 0.60938 5.5938 1.1094z"/>
  </symbol>
  <symbol id="k" overflow="visible">
   <path d="m4.4375-35.203h9.0781v12.859l13.078-12.859h10.531l-16.938 16.672 18.688 18.531h-11.359l-14-13.859v13.859h-9.0781z"/>
  </symbol>
  <symbol id="j" overflow="visible">
   <path d="m4.0625-26.406h8.4375v26.406h-8.4375zm0-10.281h8.4375v6.8906h-8.4375z"/>
  </symbol>
  <symbol id="i" overflow="visible">
   <path d="m28.531-22.016c1.0625-1.6328 2.3281-2.8789 3.7969-3.7344 1.4688-0.86328 3.082-1.2969 4.8438-1.2969 3.0391 0 5.3516 0.9375 6.9375 2.8125 1.582 1.875 2.375 4.5938 2.375 8.1562v16.078h-8.4844v-13.766c0.019531-0.20703 0.03125-0.42188 0.03125-0.64062 0.007812-0.21875 0.015625-0.53125 0.015625-0.9375 0-1.875-0.27734-3.2266-0.82812-4.0625-0.54297-0.84375-1.4297-1.2656-2.6562-1.2656-1.6055 0-2.8438 0.66406-3.7188 1.9844-0.86719 1.3125-1.3203 3.2188-1.3594 5.7188v12.969h-8.4844v-13.766c0-2.9258-0.25-4.8047-0.75-5.6406-0.5-0.84375-1.3984-1.2656-2.6875-1.2656-1.6172 0-2.8672 0.66797-3.75 2-0.875 1.3242-1.3125 3.2188-1.3125 5.6875v12.984h-8.5v-26.406h8.5v3.875c1.0312-1.5 2.2188-2.625 3.5625-3.375 1.3438-0.75781 2.8281-1.1406 4.4531-1.1406 1.8203 0 3.4297 0.44531 4.8281 1.3281 1.3945 0.875 2.457 2.1094 3.1875 3.7031z"/>
  </symbol>
 </defs>
 <g>
  <path d="m369.31 502.07v-452.75c39.926 4.4023 75.152 22.684 104.97 54.379 7.2969 7.7578 17.477 12.16 28.129 12.16h50.352c10.664 0 19.312 8.6445 19.312 19.309v38.621h67.586v-154.48c0-10.664 8.6445-19.309 19.309-19.309 10.664 0 19.312 8.6445 19.312 19.309v521.38c0 10.664-8.6484 19.309-19.312 19.309-10.664 0-19.309-8.6445-19.309-19.309v-96.555h-67.586v38.621c0 10.664-8.6484 19.312-19.312 19.312zm202.76-96.555h67.586v-193.1h-67.586zm-241.38 96.555h-183.45c-10.664 0-19.312-8.6484-19.312-19.312v-38.621h-67.586v96.555c0 10.664-8.6445 19.309-19.309 19.309-10.664 0-19.312-8.6445-19.312-19.309v-521.38c0-10.664 8.6484-19.309 19.312-19.309 10.664 0 19.309 8.6445 19.309 19.309v154.48h67.586v-38.621c0-10.664 8.6484-19.309 19.312-19.309h50.352c10.652 0 20.832-4.4023 28.129-12.16 29.816-31.695 65.043-49.977 104.97-54.379zm-270.35-96.555h67.586v-193.1h-67.586z"/>
  <use x="21.722656" y="704.828125" xlink:href="#o"/>
  <use x="57.152344" y="704.828125" xlink:href="#b"/>
  <use x="80.960938" y="704.828125" xlink:href="#a"/>
  <use x="113.703125" y="704.828125" xlink:href="#d"/>
  <use x="146.28125" y="704.828125" xlink:href="#h"/>
  <use x="169.355469" y="704.828125" xlink:href="#a"/>
  <use x="202.097656" y="704.828125" xlink:href="#c"/>
  <use x="253.460938" y="704.828125" xlink:href="#g"/>
  <use x="288.019531" y="704.828125" xlink:href="#f"/>
  <use x="336.296875" y="704.828125" xlink:href="#e"/>
  <use x="373.65625" y="704.828125" xlink:href="#n"/>
  <use x="408.023438" y="704.828125" xlink:href="#c"/>
  <use x="442.582031" y="704.828125" xlink:href="#b"/>
  <use x="466.390625" y="704.828125" xlink:href="#a"/>
  <use x="499.132813" y="704.828125" xlink:href="#m"/>
  <use x="515.679688" y="704.828125" xlink:href="#l"/>
  <use x="561.222656" y="704.828125" xlink:href="#k"/>
  <use x="598.628906" y="704.828125" xlink:href="#j"/>
  <use x="615.179688" y="704.828125" xlink:href="#b"/>
  <use x="638.984375" y="704.828125" xlink:href="#i"/>
  <use x="689.289062" y="704.828125" xlink:href="#d"/>
 </g>
</svg>
