<?xml version="1.0" encoding="UTF-8"?>
<svg width="700pt" height="700pt" version="1.1" viewBox="0 0 700 700" xmlns="http://www.w3.org/2000/svg">
 <path d="m350 149.33c10.309 0 18.668-8.3555 18.668-18.664 0-10.312-8.3594-18.668-18.668-18.668v-37.332c268.41 0 193.66 305.69 177.33 354.66-2.4727 7.4258-7.4102 15.836-14.809 25.23-14.07 17.871-39.965 20.949-57.832 6.8789-15.352-12.09-20.098-33.301-11.359-50.773 28-56 74.668-224-93.332-224zm84 18.668c10.309 0 18.668-8.3555 18.668-18.668 0-10.309-8.3594-18.664-18.668-18.664s-18.668 8.3555-18.668 18.664c0 10.312 8.3594 18.668 18.668 18.668zm56 65.332c10.309 0 18.668-8.3555 18.668-18.664 0-10.312-8.3594-18.668-18.668-18.668s-18.668 8.3555-18.668 18.668c0 10.309 8.3594 18.664 18.668 18.664zm18.668 84c10.309 0 18.664-8.3555 18.664-18.664 0-10.312-8.3555-18.668-18.664-18.668-10.312 0-18.668 8.3555-18.668 18.668 0 10.309 8.3555 18.664 18.668 18.664zm-9.3359 93.336c-10.309 0-18.664-8.3594-18.664-18.668s8.3555-18.668 18.664-18.668c10.312 0 18.668 8.3594 18.668 18.668s-8.3555 18.668-18.668 18.668zm-149.33-261.34v37.336c-168 0-122.72 168-94.723 224 8.7383 17.473 3.9922 38.684-11.355 50.773-17.871 14.07-43.762 10.992-57.836-6.8789-7.3984-9.3945-12.332-17.805-14.809-25.23-16.324-48.973-89.688-354.66 178.72-354.66v37.332c-10.309 0-18.668 8.3555-18.668 18.668 0 10.309 8.3594 18.664 18.668 18.664zm-84 18.668c10.309 0 18.668-8.3555 18.668-18.668 0-10.309-8.3594-18.664-18.668-18.664s-18.668 8.3555-18.668 18.664c0 10.312 8.3594 18.668 18.668 18.668zm-56 65.332c10.309 0 18.668-8.3555 18.668-18.664 0-10.312-8.3594-18.668-18.668-18.668s-18.668 8.3555-18.668 18.668c0 10.309 8.3594 18.664 18.668 18.664zm-18.668 84c10.312 0 18.668-8.3555 18.668-18.664 0-10.312-8.3555-18.668-18.668-18.668-10.309 0-18.664 8.3555-18.664 18.668 0 10.309 8.3555 18.664 18.664 18.664zm7.9453 93.336c10.309 0 18.668-8.3594 18.668-18.668s-8.3594-18.668-18.668-18.668-18.668 8.3594-18.668 18.668 8.3594 18.668 18.668 18.668z" fill-rule="evenodd"/>
</svg>
